<?xml version="1.0" standalone="no"?>
<!DOCTYPE svg PUBLIC "-//W3C//DTD SVG 20010904//EN"
 "http://www.w3.org/TR/2001/REC-SVG-20010904/DTD/svg10.dtd">
<svg version="1.0" xmlns="http://www.w3.org/2000/svg"
 width="16.000000pt" height="16.000000pt" viewBox="0 0 16.000000 16.000000"
 preserveAspectRatio="xMidYMid meet">

<g transform="translate(0.000000,16.000000) scale(0.100000,-0.100000)"
fill="#000000" stroke="none">
<path d="M0 80 l0 -80 80 0 80 0 0 80 0 80 -80 0 -80 0 0 -80z m123 58 c26 1
27 0 27 -54 0 -49 -3 -55 -25 -64 -15 -6 -34 -6 -49 0 -13 5 -33 6 -45 3 -20
-5 -21 -1 -21 51 0 49 3 58 22 66 13 5 32 6 43 2 11 -3 32 -5 48 -4z"/>
</g>
</svg>
